<?xml version="1.0" encoding="utf-8"?>
<!-- Generator: Adobe Illustrator 21.0.2, SVG Export Plug-In . SVG Version: 6.00 Build 0)  -->
<!DOCTYPE svg PUBLIC "-//W3C//DTD SVG 1.1//EN" "http://www.w3.org/Graphics/SVG/1.1/DTD/svg11.dtd">
<svg version="1.1" id="Layer_1" xmlns="http://www.w3.org/2000/svg" xmlns:xlink="http://www.w3.org/1999/xlink" x="0px" y="0px"
	 viewBox="0 0 218.6 211.8" style="enable-background:new 0 0 218.6 211.8;" xml:space="preserve">
<style type="text/css">
	.st0{fill:#FCB141;}
</style>
<path class="st0" d="M98.8,162.4c-5.9,3.8-10.4,7.5-14.9,9.3c-4.6,1.9-17.6,10.5-17.6,10.5s4.3-10.8,2.1-11.3
	c-2.2-0.4-12.3-1.6-17.1-2.5s-16.6,0.1-16.6,0.1s8.2-5.1,3-6.6s-14.5-9.7-19.6-10.7c-5-1-17.9-7.6-17.9-7.6s13.2-0.5,14.9-1.6
	s18-7.2,19.6-9.2s4.8-6.8,1.9-8.8c-2.8-2-10.6-9.5-15.7-13.9c-5.1-4.4-20.9-7.5-20.9-7.5s15.7-1.7,17.2-5.4c1.4-3.7,2.3-3,2.7-7.9
	c0.4-4.9-4.5-9-4.5-9s4.3-1.7,4.5-7.8c0.2-6.2-7.6-22.8-7.6-22.8s13,13.9,26.6,15.2c13.6,1.4,8.3-6.9,8.3-6.9s18,22.8,20.9,21.6
	c3-1.2,6.7-2.5,8-12.1s0.4-16.5,2.2-22.4s-4.5-20-4.5-20s5.3,6.2,10.1,5.4c4.9-0.8,14.8-7.4,15.9-13.1c1.1-5.7,2.1-17.5,2.1-17.5
	s1.5,14.2,6.2,18.3s11.9,4,11.9,4s-4.1,8.4,0.8,10.6c4.9,2.2,13.4,4.8,14.8,2.6c1.4-2.2,11.5-9.7,11.5-9.7s-9.8,20-10.9,26.2
	c-1.2,6.2,1,17.1,0.4,19.9c-0.5,2.9-1.6,8.1-1.6,8.1s10.5-3,16.5-7c6-4.1,18.4-22.5,18.4-22.5s-0.9,7.3,3.9,7.9s23.3-5,26.9-8.3
	c3.6-3.3,11.9-6.7,11.9-6.7s-10.1,10-11.3,16.5s-0.9,16.5-0.9,16.5s-4.2,7.9-3.8,10.7c0.5,2.8,4.3,10.2,7.3,11.1
	c3.1,0.8,14.5,6,14.5,6s-21.6-1.4-24.5,3.5c-2.9,4.9-16.4,15.5-18.3,16.8c-2,1.4-4.3,8.4-4.3,8.4s11.1,8.1,15.7,11.2
	c4.6,3.1,26.8,12.3,26.8,12.3s-26.4,0.2-37.2,4.8c-10.8,4.6-18.8,2.1-23.2,3.5c-4.5,1.4-10.8,3.4-11,8.1c-0.1,4.7,6.1,12.3,6.1,12.3
	s-15.7-11.2-22.2-12.7c-6.4-1.5-24-9.7-24-9.7s-2.5,35.2-3.6,41.3c-1.2,6.1-3.1,7.8-3.1,7.8s4-25.3,3.7-33.3S98.8,162.4,98.8,162.4z
	"/>
</svg>
