<?xml version="1.0" encoding="utf-8"?>
<!-- Generator: Adobe Illustrator 21.0.2, SVG Export Plug-In . SVG Version: 6.00 Build 0)  -->
<!DOCTYPE svg PUBLIC "-//W3C//DTD SVG 1.1//EN" "http://www.w3.org/Graphics/SVG/1.1/DTD/svg11.dtd">
<svg version="1.1" id="Layer_1" xmlns="http://www.w3.org/2000/svg" xmlns:xlink="http://www.w3.org/1999/xlink" x="0px" y="0px"
	 viewBox="0 0 44.6 78.4" style="enable-background:new 0 0 44.6 78.4;" xml:space="preserve">
<style type="text/css">
	.st0{fill:#665E53;}
	.st1{fill:#81C341;}
</style>
<title>maple01</title>
<polygon id="Trunk" class="st0" points="18,76.4 17.7,51.5 25.1,18.6 25.1,6.8 26.2,6.4 28,20.9 24.4,53 26.8,76.4 22.4,77.4 "/>
<polygon id="Branch" class="st0" points="23.1,41.4 23.9,44.9 43.6,32.9 43.3,32.3 "/>
<polygon id="Twig_3_" class="st0" points="32.4,37.3 33.3,38.4 38.1,31.1 37.9,31 "/>
<polygon id="Branch_2_" class="st0" points="22.1,50.9 20.3,54.2 1,35.2 1.5,34.7 "/>
<polygon id="Twig_4_" class="st0" points="13.4,44.8 11.8,44.4 9.1,35.3 9.4,35.2 "/>
<polygon id="Twig" class="st0" points="17.2,22.1 18.5,22.4 17.3,13.7 17,13.7 "/>
<polygon id="Branch_1_" class="st0" points="23.4,31.8 23.9,28.1 10.1,10.7 9.6,11.1 "/>
<polygon id="Twig_1_" class="st0" points="26.2,36 24.7,34.2 37.8,22.4 38.3,22.7 "/>
<polygon id="Twig_2_" class="st0" points="26.4,15.2 27,17 34.1,6.2 33.8,6 "/>
<polygon id="Leaf" class="st1" points="9.5,10.5 9.6,11.2 9.4,11 9.1,11.6 9,11.5 8.4,11.9 8.5,11.3 8.4,11.2 7.8,11.6 7.8,11.3 
	7,11 7.5,10.7 7.4,10.5 7.9,10.3 7.1,9.8 7.3,9.7 6.9,9.2 7.3,9.2 7.4,9.1 7.6,9.1 7.7,8.7 8.5,9.3 8.3,8.5 8.4,8.5 8.5,7.8 
	9.1,8.3 9.5,8.1 9.6,9.1 10.3,8.6 10,9.9 10.2,9.9 9.5,10.4 10.3,10.9 9.5,10.5 "/>
<polygon id="Leaf_1_" class="st1" points="12.3,12.9 11.7,13.1 11.8,12.9 11.2,12.7 11.3,12.6 10.7,12.1 11.4,12.1 11.4,11.9 
	10.9,11.4 11.2,11.4 11.4,10.5 11.8,10.9 11.9,10.9 12.2,11.3 12.5,10.4 12.7,10.6 13.1,10.1 13.2,10.5 13.3,10.6 13.3,10.8 
	13.8,10.8 13.3,11.6 14,11.3 14.1,11.5 14.8,11.4 14.3,12.1 14.6,12.4 13.7,12.7 14.3,13.3 13,13.3 13.1,13.5 12.4,12.9 12,13.7 
	12.3,12.9 "/>
<polygon id="Leaf_4_" class="st1" points="10.8,10.8 10.1,11 10.2,10.8 9.6,10.6 9.7,10.5 9.2,10 9.8,10 9.9,9.9 9.4,9.3 9.7,9.3 
	9.8,8.5 10.2,8.9 10.4,8.8 10.6,9.2 11,8.3 11.1,8.5 11.6,8 11.6,8.4 11.8,8.5 11.8,8.7 12.2,8.7 11.8,9.6 12.5,9.2 12.5,9.4 
	13.3,9.3 12.8,10 13.1,10.4 12.1,10.6 12.8,11.2 11.5,11.2 11.5,11.4 10.8,10.8 10.5,11.6 10.8,10.8 "/>
<polygon id="Leaf_5_" class="st1" points="13.5,14.7 12.8,14.9 12.9,14.7 12.3,14.5 12.4,14.4 11.9,13.9 12.5,13.9 12.6,13.7 
	12.1,13.2 12.4,13.2 12.5,12.4 12.9,12.8 13.1,12.7 13.3,13.1 13.7,12.2 13.8,12.4 14.3,11.9 14.3,12.3 14.5,12.4 14.4,12.6 
	14.9,12.6 14.5,13.5 15.2,13.1 15.2,13.3 16,13.2 15.5,13.9 15.8,14.3 14.8,14.5 15.5,15.1 14.2,15.1 14.2,15.3 13.5,14.7 
	13.2,15.5 13.5,14.7 "/>
<polygon id="Leaf_6_" class="st1" points="17.8,14.2 17.1,14.4 17.2,14.2 16.7,14 16.8,13.9 16.2,13.5 16.8,13.4 16.9,13.3 
	16.4,12.8 16.7,12.7 16.9,11.9 17.2,12.3 17.4,12.2 17.7,12.7 18,11.8 18.2,11.9 18.6,11.5 18.6,11.8 18.8,12 18.8,12.1 19.3,12.1 
	18.8,13 19.5,12.7 19.6,12.8 20.3,12.8 19.8,13.4 20.1,13.8 19.2,14.1 19.8,14.7 18.5,14.6 18.5,14.9 17.9,14.3 17.5,15.1 
	17.8,14.2 "/>
<polygon id="Leaf_7_" class="st1" points="18.2,16.1 17.6,15.9 17.8,15.8 17.5,15.3 17.6,15.2 17.5,14.5 18,14.9 18.1,14.8 
	18.1,14.1 18.3,14.3 18.9,13.7 19,14.3 19.2,14.3 19.1,14.8 19.9,14.4 19.9,14.6 20.6,14.5 20.4,14.8 20.4,15 20.3,15.1 20.7,15.4 
	19.7,15.8 20.5,16 20.5,16.2 21.1,16.6 20.3,16.8 20.2,17.3 19.4,16.9 19.4,17.7 18.5,16.9 18.4,17.1 18.2,16.2 17.4,16.6 
	18.2,16.1 "/>
<polygon id="Leaf_8_" class="st1" points="17.3,16.6 17,17.2 16.9,17.1 16.4,17.3 16.3,17.2 15.6,17.3 16,16.8 16,16.7 15.2,16.7 
	15.4,16.5 14.9,15.8 15.4,15.8 15.5,15.6 16,15.7 15.6,14.8 15.8,14.8 15.7,14.2 16,14.4 16.2,14.4 16.3,14.5 16.7,14.1 17,15.1 
	17.2,14.3 17.4,14.4 17.8,13.8 18,14.6 18.5,14.6 18,15.5 18.9,15.4 18,16.4 18.2,16.5 17.3,16.6 17.7,17.4 17.3,16.6 "/>
<polygon id="Leaf_11_" class="st1" points="25.8,5.6 25.1,5.8 25.2,5.6 24.6,5.4 24.7,5.3 24.2,4.8 24.8,4.8 24.9,4.7 24.4,4.1 
	24.7,4.1 24.8,3.3 25.2,3.7 25.4,3.6 25.6,4.1 26,3.2 26.1,3.3 26.6,2.9 26.6,3.2 26.8,3.3 26.8,3.5 27.2,3.5 26.8,4.4 27.5,4 
	27.5,4.2 28.3,4.1 27.8,4.8 28.1,5.2 27.1,5.4 27.8,6 26.5,6 26.5,6.2 25.8,5.6 25.5,6.4 25.8,5.6 "/>
<polygon id="Leaf_10_" class="st1" points="26.2,7.5 25.5,7.2 25.7,7.1 25.4,6.6 25.6,6.6 25.4,5.9 25.9,6.3 26.1,6.2 26,5.5 
	26.3,5.7 26.9,5.1 27,5.6 27.2,5.7 27,6.2 27.9,5.7 27.9,5.9 28.5,5.9 28.3,6.2 28.4,6.4 28.3,6.5 28.6,6.8 27.7,7.2 28.5,7.4 
	28.4,7.5 29,7.9 28.2,8.2 28.2,8.6 27.3,8.2 27.4,9.1 26.5,8.2 26.3,8.4 26.2,7.6 25.4,7.9 26.2,7.5 "/>
<polygon id="Leaf_9_" class="st1" points="25.2,8 24.9,8.6 24.9,8.4 24.3,8.7 24.3,8.6 23.6,8.7 24,8.2 23.9,8 23.2,8.1 23.4,7.8 
	22.9,7.2 23.4,7.1 23.5,7 24,7.1 23.5,6.2 23.7,6.2 23.7,5.6 24,5.8 24.2,5.7 24.3,5.9 24.6,5.5 25,6.4 25.2,5.7 25.3,5.7 25.8,5.1 
	26,5.9 26.4,6 26,6.9 26.9,6.8 26,7.7 26.2,7.9 25.3,8 25.7,8.8 25.2,8 "/>
<polygon id="Leaf_14_" class="st1" points="23.4,10.2 23,10.8 23,10.6 22.4,10.9 22.4,10.8 21.7,10.8 22.1,10.4 22.1,10.2 
	21.3,10.2 21.5,10 21,9.3 21.6,9.3 21.6,9.1 22.2,9.3 21.8,8.4 22,8.4 22,7.7 22.2,8 22.4,7.9 22.5,8.1 22.9,7.7 23.2,8.7 23.5,7.9 
	23.6,8 24,7.4 24.2,8.2 24.7,8.3 24.2,9.1 25.1,9.1 24.1,10 24.3,10.1 23.4,10.2 23.8,11 23.4,10.2 "/>
<polygon id="Leaf_13_" class="st1" points="25,11.3 24.4,11.5 24.4,11.3 23.9,11.2 23.9,11.1 23.3,10.7 24,10.6 24,10.4 23.4,9.9 
	23.8,9.9 23.8,9.1 24.2,9.4 24.4,9.3 24.7,9.7 24.9,8.8 25.1,8.9 25.5,8.5 25.6,8.8 25.8,8.9 25.7,9.1 26.2,9 25.9,9.9 26.5,9.5 
	26.6,9.7 27.3,9.5 26.9,10.3 27.2,10.6 26.3,11 27,11.5 25.7,11.6 25.8,11.8 25,11.3 24.8,12.1 25,11.3 "/>
<polygon id="Leaf_12_" class="st1" points="24.7,12.3 24.9,12.9 24.7,12.9 24.6,13.4 24.5,13.4 24,13.9 24,13.3 23.8,13.2 
	23.3,13.8 23.3,13.5 22.4,13.4 22.8,13 22.7,12.8 23.2,12.6 22.2,12.3 22.4,12.1 21.9,11.7 22.2,11.6 22.3,11.5 22.5,11.5 22.5,11 
	23.4,11.4 23,10.7 23.2,10.6 23,9.9 23.7,10.3 24.1,10 24.4,10.9 25,10.3 25,11.6 25.3,11.5 24.7,12.2 25.5,12.5 24.7,12.3 "/>
<polygon id="Leaf_17_" class="st1" points="32.8,9.7 32.4,9.1 32.6,9.2 32.6,8.6 32.8,8.6 33,7.9 33.3,8.5 33.4,8.5 33.8,7.9 
	33.9,8.2 34.7,8 34.5,8.5 34.6,8.6 34.2,9 35.2,9.1 35.1,9.3 35.7,9.5 35.4,9.7 35.3,9.9 35.1,9.9 35.3,10.4 34.3,10.2 34.9,10.8 
	34.8,10.9 35.1,11.5 34.3,11.3 34,11.7 33.4,10.9 33.1,11.7 32.7,10.5 32.5,10.6 32.8,9.7 31.9,9.7 32.8,9.7 "/>
<polygon id="Leaf_16_" class="st1" points="31.2,10.7 31.2,10 31.4,10.2 31.8,9.7 31.8,9.8 32.5,9.5 32.3,10.1 32.4,10.2 33.1,9.9 
	33,10.2 33.7,10.6 33.2,10.8 33.2,11 32.7,11.1 33.4,11.7 33.2,11.8 33.5,12.4 33.2,12.3 33,12.4 32.8,12.3 32.6,12.8 32,12 
	32.1,12.9 31.9,12.8 31.7,13.5 31.3,12.9 30.8,13 30.9,12 30.1,12.4 30.6,11.2 30.3,11.2 31.1,10.7 30.5,10.1 31.2,10.7 "/>
<polygon id="Leaf_15_" class="st1" points="30.4,10 29.7,9.9 29.9,9.8 29.4,9.4 29.5,9.3 29.2,8.6 29.8,8.9 29.9,8.8 29.6,8.1 
	29.9,8.2 30.4,7.5 30.6,8 30.8,8 30.8,8.5 31.5,7.8 31.6,8 32.2,7.7 32.1,8 32.2,8.2 32.1,8.4 32.5,8.6 31.8,9.2 32.6,9.2 32.6,9.3 
	33.3,9.5 32.6,10 32.7,10.4 31.7,10.3 32.1,11.1 30.9,10.6 30.8,10.8 30.4,10 29.8,10.6 30.4,10 "/>
<polygon id="Leaf_20_" class="st1" points="35.6,6.1 35.3,5.6 35.4,5.6 35.5,5 35.6,5.1 35.9,4.4 36.1,5 36.2,5 36.6,4.3 36.7,4.6 
	37.5,4.5 37.3,5 37.4,5.1 37.1,5.5 38,5.5 37.9,5.7 38.5,6 38.2,6.1 38.1,6.3 38,6.4 38.1,6.8 37.1,6.7 37.7,7.2 37.6,7.3 37.9,8 
	37.1,7.8 36.8,8.2 36.3,7.4 35.9,8.2 35.5,6.9 35.3,7 35.6,6.2 34.8,6.1 35.6,6.1 "/>
<polygon id="Leaf_19_" class="st1" points="34,7.1 34,6.5 34.2,6.6 34.6,6.2 34.6,6.3 35.3,5.9 35.1,6.5 35.2,6.6 35.9,6.3 
	35.8,6.6 36.5,7.1 36,7.3 36,7.5 35.5,7.5 36.2,8.2 36,8.3 36.3,8.9 36,8.8 35.8,8.9 35.6,8.8 35.5,9.2 34.8,8.5 34.9,9.3 34.7,9.3 
	34.5,10 34.1,9.3 33.6,9.5 33.7,8.5 32.9,8.9 33.4,7.7 33.2,7.6 34,7.2 33.3,6.6 34,7.1 "/>
<polygon id="Leaf_18_" class="st1" points="33.2,6.4 32.5,6.4 32.7,6.2 32.2,5.8 32.3,5.8 32,5.1 32.6,5.3 32.7,5.2 32.5,4.5 
	32.8,4.6 33.2,3.9 33.4,4.4 33.6,4.4 33.7,4.9 34.3,4.2 34.4,4.4 35,4.2 34.9,4.5 35,4.7 34.9,4.8 35.4,5 34.6,5.7 35.4,5.6 
	35.4,5.8 36.1,6 35.4,6.4 35.5,6.9 34.5,6.8 34.9,7.6 33.7,7 33.7,7.3 33.2,6.5 32.6,7.1 33.2,6.4 "/>
<polygon id="Leaf_23_" class="st1" points="34.4,27.5 34,26.9 34.2,27 34.2,26.4 34.4,26.4 34.6,25.7 34.9,26.3 35,26.3 35.4,25.7 
	35.5,26 36.3,25.8 36.1,26.3 36.2,26.4 35.8,26.8 36.8,26.9 36.7,27.1 37.3,27.3 37,27.5 36.9,27.7 36.7,27.7 36.9,28.2 35.9,28 
	36.5,28.6 36.4,28.7 36.7,29.3 35.9,29.1 35.6,29.5 35,28.7 34.7,29.5 34.3,28.3 34.1,28.4 34.4,27.5 33.6,27.5 34.4,27.5 "/>
<polygon id="Leaf_22_" class="st1" points="32.8,28.5 32.8,27.8 33,28 33.4,27.5 33.4,27.6 34.1,27.3 33.9,27.9 34,28 34.7,27.7 
	34.6,28 35.3,28.4 34.8,28.6 34.8,28.8 34.3,28.9 35,29.5 34.8,29.6 35.1,30.2 34.8,30.1 34.6,30.2 34.4,30.1 34.2,30.6 33.6,29.8 
	33.7,30.7 33.5,30.6 33.3,31.3 32.9,30.7 32.4,30.8 32.5,29.8 31.7,30.2 32.2,29 31.9,29 32.7,28.5 32.1,27.9 32.8,28.5 "/>
<polygon id="Leaf_21_" class="st1" points="32,27.8 31.3,27.7 31.5,27.6 31,27.2 31.1,27.1 30.8,26.4 31.4,26.7 31.5,26.6 
	31.2,25.9 31.5,26 32,25.3 32.2,25.8 32.4,25.8 32.4,26.3 33.1,25.6 33.2,25.8 33.8,25.5 33.7,25.8 33.8,26 33.7,26.2 34.1,26.4 
	33.4,27 34.2,27 34.2,27.1 34.9,27.3 34.2,27.8 34.3,28.2 33.3,28.1 33.7,28.9 32.5,28.4 32.4,28.6 32,27.8 31.4,28.4 32,27.8 "/>
<polygon id="Leaf_26_" class="st1" points="36.1,22.2 35.4,22.3 35.5,22.1 35,21.8 35.1,21.7 34.6,21.2 35.2,21.2 35.3,21.1 
	34.9,20.5 35.2,20.6 35.4,19.7 35.8,20.2 35.9,20.1 36.1,20.6 36.6,19.7 36.7,19.9 37.2,19.5 37.2,19.9 37.4,20 37.3,20.2 
	37.8,20.2 37.2,21 38,20.8 38,20.9 38.8,21 38.2,21.6 38.5,22 37.5,22.2 38,22.8 36.7,22.6 36.8,22.9 36.2,22.2 35.7,22.9 
	36.1,22.2 "/>
<polygon id="Leaf_25_" class="st1" points="36.3,24.1 35.7,23.7 35.9,23.7 35.6,23.1 35.8,23.1 35.7,22.4 36.2,22.8 36.4,22.8 
	36.4,22 36.6,22.3 37.3,21.8 37.3,22.3 37.5,22.4 37.3,22.9 38.2,22.5 38.2,22.7 38.8,22.8 38.6,23 38.6,23.2 38.5,23.3 38.8,23.7 
	37.9,23.9 38.6,24.2 38.5,24.4 39.1,24.8 38.3,25 38.2,25.4 37.4,25 37.3,25.8 36.5,24.8 36.4,25 36.3,24.1 35.5,24.4 36.3,24.1 "/>
<polygon id="Leaf_24_" class="st1" points="35.3,24.5 34.9,25 34.9,24.9 34.3,25.1 34.3,25 33.6,25 34,24.5 34,24.4 33.3,24.3 
	33.5,24.1 33,23.4 33.6,23.4 33.7,23.2 34.2,23.4 33.8,22.5 34,22.5 34.1,21.9 34.3,22.1 34.5,22.1 34.6,22.3 35,21.9 35.2,22.9 
	35.5,22.1 35.7,22.2 36.2,21.7 36.2,22.5 36.7,22.6 36.2,23.4 37.1,23.5 36.1,24.3 36.3,24.4 35.4,24.5 35.6,25.3 35.3,24.5 "/>
<polygon id="Leaf_29_" class="st1" points="35.7,30.8 35.1,30.9 35.2,30.8 34.6,30.5 34.7,30.4 34.2,29.9 34.9,29.9 35,29.8 
	34.5,29.2 34.8,29.2 35.1,28.4 35.4,28.8 35.6,28.8 35.8,29.3 36.2,28.4 36.4,28.6 36.8,28.2 36.8,28.5 37,28.7 36.9,28.9 
	37.4,28.9 36.9,29.7 37.6,29.5 37.6,29.6 38.4,29.6 37.8,30.2 38.1,30.7 37.1,30.8 37.7,31.5 36.4,31.3 36.4,31.5 35.8,30.9 
	35.4,31.6 35.7,30.8 "/>
<polygon id="Leaf_28_" class="st1" points="35.9,32.8 35.3,32.4 35.5,32.4 35.3,31.8 35.4,31.8 35.4,31.1 35.8,31.5 36,31.5 
	36,30.7 36.2,30.9 36.9,30.5 36.9,31 37.1,31.1 36.9,31.6 37.8,31.2 37.8,31.4 38.5,31.4 38.2,31.7 38.3,31.9 38.1,32 38.4,32.4 
	37.5,32.6 38.2,32.9 38.2,33 38.7,33.5 37.9,33.6 37.8,34.1 37,33.6 37,34.5 36.1,33.5 36,33.7 35.9,32.8 35.1,33.1 35.9,32.8 "/>
<polygon id="Leaf_27_" class="st1" points="34.9,33.2 34.6,33.7 34.5,33.5 34,33.8 34,33.6 33.2,33.6 33.7,33.2 33.6,33 32.9,33 
	33.1,32.8 32.7,32.1 33.2,32.1 33.3,31.9 33.8,32.1 33.4,31.2 33.6,31.2 33.7,30.6 33.9,30.8 34.1,30.8 34.2,30.9 34.6,30.6 
	34.8,31.6 35.2,30.8 35.3,30.9 35.8,30.4 35.9,31.2 36.4,31.3 35.8,32.1 36.7,32.1 35.7,33 35.9,33.1 35,33.1 35.3,34 34.9,33.2 "/>
<polygon id="Leaf_32_" class="st1" points="41.1,31.7 40.5,31.8 40.6,31.6 40.1,31.3 40.1,31.2 39.7,30.7 40.3,30.8 40.4,30.6 
	39.9,30 40.2,30.1 40.5,29.2 40.8,29.7 41,29.6 41.2,30.1 41.6,29.2 41.8,29.4 42.3,29 42.3,29.4 42.4,29.5 42.4,29.7 42.8,29.7 
	42.3,30.5 43.1,30.3 43.1,30.4 43.8,30.5 43.3,31.1 43.5,31.5 42.5,31.7 43.1,32.3 41.8,32.1 41.8,32.4 41.2,31.7 40.8,32.4 
	41.1,31.7 "/>
<polygon id="Leaf_31_" class="st1" points="41.3,33.6 40.7,33.2 40.9,33.2 40.7,32.6 40.8,32.6 40.8,31.9 41.3,32.3 41.4,32.3 
	41.4,31.5 41.7,31.8 42.4,31.3 42.3,31.8 42.5,31.9 42.4,32.4 43.2,32 43.3,32.2 43.9,32.3 43.6,32.5 43.7,32.7 43.5,32.8 
	43.9,33.2 42.9,33.4 43.7,33.7 43.6,33.9 44.1,34.3 43.3,34.5 43.2,35 42.4,34.5 42.4,35.3 41.5,34.3 41.4,34.5 41.4,33.6 
	40.5,33.9 41.3,33.6 "/>
<polygon id="Leaf_30_" class="st1" points="40.3,34 40,34.5 39.9,34.4 39.4,34.6 39.4,34.5 38.6,34.5 39.1,34 39.1,33.9 38.3,33.8 
	38.5,33.6 38.1,32.9 38.6,32.9 38.7,32.7 39.2,32.9 38.9,32 39.1,32 39.1,31.4 39.3,31.6 39.6,31.6 39.7,31.8 40,31.4 40.3,32.4 
	40.6,31.6 40.7,31.7 41.2,31.2 41.3,32 41.8,32.1 41.3,32.9 42.1,33 41.1,33.8 41.3,33.9 40.4,34 40.7,34.8 40.3,34 "/>
<polygon id="Leaf_35_" class="st1" points="39.4,37.4 39.6,36.8 39.7,37 40.2,36.6 40.2,36.7 41,36.5 40.6,37.1 40.7,37.2 41.4,37 
	41.3,37.3 41.9,37.9 41.4,38 41.4,38.2 40.8,38.1 41.4,38.9 41.2,39 41.4,39.6 41.1,39.4 40.9,39.5 40.7,39.4 40.5,39.8 40,38.9 
	39.9,39.7 39.7,39.7 39.4,40.4 39.1,39.6 38.6,39.6 38.9,38.7 38,38.9 38.8,37.8 38.5,37.8 39.4,37.5 38.9,36.8 39.4,37.4 "/>
<polygon id="Leaf_34_" class="st1" points="37.6,36.8 38.2,36.4 38.2,36.6 38.8,36.6 38.7,36.7 39.4,37 38.8,37.3 38.8,37.4 
	39.4,37.7 39.1,37.9 39.3,38.7 38.8,38.5 38.7,38.6 38.3,38.2 38.2,39.2 38,39.1 37.8,39.7 37.6,39.4 37.4,39.3 37.4,39.1 
	36.9,39.3 37.1,38.3 36.5,38.8 36.4,38.7 35.7,39 36,38.2 35.6,38 36.4,37.4 35.6,37 36.9,36.7 36.7,36.5 37.6,36.8 37.6,35.9 
	37.6,36.8 "/>
<polygon id="Leaf_33_" class="st1" points="37.7,35.7 37.3,35.2 37.5,35.2 37.6,34.6 37.7,34.7 38,34 38.2,34.6 38.3,34.6 38.7,34 
	38.8,34.3 39.6,34.2 39.4,34.6 39.5,34.8 39.1,35.1 40.1,35.2 40,35.4 40.6,35.7 40.2,35.8 40.2,36 40,36.1 40.1,36.5 39.2,36.3 
	39.7,36.9 39.6,37 39.8,37.7 39.1,37.4 38.8,37.8 38.2,37 37.9,37.8 37.5,36.5 37.3,36.6 37.7,35.8 36.8,35.7 37.7,35.7 "/>
<polygon id="Leaf_38_" class="st1" points="2.2,35.1 1.7,35.6 1.7,35.4 1,35.4 1.1,35.3 0.3,35 0.9,34.7 0.9,34.6 0.2,34.3 
	0.5,34.1 0.3,33.2 0.8,33.5 1,33.3 1.4,33.7 1.4,32.6 1.6,32.7 1.8,32.1 2,32.4 2.2,32.5 2.3,32.7 2.8,32.5 2.7,33.5 3.3,32.9 
	3.4,33 4,32.6 3.9,33.5 4.3,33.7 3.5,34.4 4.4,34.7 3.1,35.2 3.2,35.4 2.3,35.1 2.3,36.1 2.2,35.1 "/>
<polygon id="Leaf_37_" class="st1" points="3.4,36.8 2.7,36.8 2.8,36.7 2.3,36.3 2.4,36.2 2,35.5 2.7,35.7 2.8,35.6 2.4,34.9 
	2.7,35 3.1,34.2 3.4,34.7 3.6,34.6 3.7,35.2 4.4,34.4 4.5,34.6 5.1,34.3 5,34.6 5.1,34.8 5,35 5.5,35.1 4.8,35.9 5.7,35.7 5.6,35.9 
	6.4,36.1 5.7,36.6 5.9,37.1 4.9,37.1 5.3,37.9 4,37.4 4,37.7 3.4,36.9 2.8,37.6 3.4,36.8 "/>
<polygon id="Leaf_36_" class="st1" points="2.7,37.7 2.7,38.4 2.5,38.3 2.1,38.8 2,38.7 1.4,39.1 1.5,38.4 1.4,38.3 0.7,38.7 
	0.8,38.3 0,37.9 0.5,37.6 0.5,37.4 1.1,37.3 0.3,36.7 0.5,36.6 0.2,36 0.5,36.1 0.7,35.9 0.9,36 1,35.5 1.8,36.3 1.7,35.4 1.8,35.5 
	2,34.7 2.5,35.4 3,35.2 3,36.3 3.8,35.8 3.3,37.1 3.6,37.2 2.7,37.7 3.4,38.3 2.7,37.7 "/>
<polygon id="Leaf_41_" class="st1" points="9.3,35.4 8.7,35.9 8.7,35.7 8.1,35.7 8.1,35.6 7.4,35.3 8,35.1 8,34.9 7.3,34.6 
	7.6,34.4 7.4,33.6 7.9,33.8 8.1,33.6 8.5,34 8.5,32.9 8.7,33 8.9,32.4 9.1,32.7 9.3,32.8 9.4,33 9.9,32.8 9.8,33.8 10.3,33.2 
	10.4,33.3 11.1,32.9 10.9,33.8 11.4,34.1 10.6,34.7 11.4,35 10.1,35.5 10.3,35.7 9.4,35.4 9.4,36.4 9.3,35.4 "/>
<polygon id="Leaf_40_" class="st1" points="10.5,37.1 9.8,37.1 9.9,37 9.4,36.6 9.5,36.5 9.1,35.9 9.7,36 9.9,35.9 9.5,35.2 
	9.8,35.3 10.2,34.5 10.5,35 10.7,34.9 10.8,35.5 11.4,34.7 11.6,34.9 12.1,34.6 12.1,34.9 12.2,35.1 12.1,35.3 12.6,35.4 11.9,36.2 
	12.7,36.1 12.7,36.2 13.5,36.4 12.8,36.9 13,37.4 11.9,37.4 12.4,38.2 11.1,37.7 11.1,38 10.5,37.2 9.9,37.9 10.5,37.1 "/>
<polygon id="Leaf_39_" class="st1" points="9.8,38 9.7,38.8 9.6,38.6 9.2,39.1 9.1,39 8.4,39.4 8.6,38.7 8.5,38.6 7.8,39 7.9,38.6 
	7.1,38.2 7.6,37.9 7.6,37.7 8.1,37.7 7.3,37 7.5,36.9 7.2,36.3 7.6,36.4 7.8,36.2 8,36.3 8.1,35.8 8.9,36.6 8.8,35.7 8.9,35.8 
	9.1,35 9.6,35.7 10.1,35.5 10.1,36.6 10.9,36.2 10.4,37.5 10.6,37.5 9.8,38 10.5,38.6 9.8,38 "/>
<polygon id="Leaf_44_" class="st1" points="11.9,18.5 12,19.2 11.8,19.1 11.5,19.7 11.5,19.6 10.9,20.1 10.9,19.4 10.8,19.3 
	10.2,19.8 10.2,19.5 9.3,19.3 9.8,18.9 9.7,18.7 10.2,18.5 9.3,18 9.4,17.9 9,17.3 9.4,17.3 9.5,17.2 9.7,17.2 9.8,16.7 10.7,17.3 
	10.4,16.5 10.5,16.5 10.5,15.7 11.2,16.2 11.7,16 11.8,17 12.5,16.4 12.4,17.8 12.6,17.8 11.9,18.4 12.7,18.9 11.9,18.5 "/>
<polygon id="Leaf_43_" class="st1" points="13.9,18.3 13.6,18.9 13.5,18.7 12.9,19 12.9,18.8 12.1,18.9 12.6,18.4 12.5,18.2 
	11.7,18.2 12,17.9 11.5,17.2 12,17.2 12.1,17 12.7,17.2 12.2,16.2 12.5,16.2 12.5,15.6 12.7,15.8 13,15.8 13.1,15.9 13.5,15.6 
	13.8,16.6 14.1,15.8 14.2,15.8 14.7,15.2 14.8,16.1 15.4,16.2 14.8,17.1 15.8,17.1 14.7,18 15,18.2 14,18.2 14.3,19.1 13.9,18.3 "/>
<polygon id="Leaf_42_" class="st1" points="14.4,19.3 15,19.7 14.8,19.7 15,20.3 14.9,20.3 14.9,21.1 14.4,20.6 14.3,20.7 
	14.2,21.5 14,21.2 13.2,21.7 13.3,21.2 13.1,21.1 13.3,20.6 12.3,20.9 12.3,20.7 11.6,20.7 11.9,20.4 11.8,20.2 12,20.1 11.7,19.7 
	12.7,19.4 11.9,19.1 12,19 11.4,18.4 12.3,18.3 12.3,17.8 13.2,18.4 13.3,17.4 14.2,18.5 14.3,18.3 14.3,19.2 15.2,18.9 14.4,19.3 
	"/>
<polygon id="Leaf_47_" class="st1" points="29,14 28.6,13.5 28.8,13.5 28.7,12.8 28.9,12.9 29.1,12.1 29.4,12.7 29.6,12.7 29.8,12 
	30,12.3 30.9,12.1 30.7,12.6 30.8,12.7 30.5,13.2 31.5,13.1 31.4,13.4 32.1,13.6 31.8,13.8 31.7,14 31.5,14 31.7,14.5 30.7,14.5 
	31.3,15 31.2,15.1 31.6,15.8 30.7,15.6 30.5,16.1 29.8,15.3 29.5,16.2 29,14.9 28.8,15 29,14.1 28.1,14.1 29,14 "/>
<polygon id="Leaf_46_" class="st1" points="27.4,15.2 27.4,14.5 27.5,14.7 27.9,14.1 28,14.3 28.6,13.8 28.5,14.5 28.6,14.6 
	29.3,14.2 29.2,14.5 30,14.9 29.5,15.2 29.6,15.4 29,15.5 29.8,16.2 29.7,16.3 30,16.9 29.6,16.8 29.4,16.9 29.3,16.9 29.1,17.4 
	28.4,16.6 28.5,17.5 28.3,17.5 28.2,18.2 27.6,17.6 27.2,17.8 27.1,16.7 26.4,17.2 26.8,15.9 26.5,15.8 27.3,15.3 26.6,14.7 
	27.4,15.2 "/>
<polygon id="Leaf_45_" class="st1" points="26.5,14.6 25.7,14.5 25.9,14.4 25.4,14 25.5,13.9 25.1,13.3 25.7,13.4 25.8,13.3 
	25.5,12.6 25.8,12.7 26.2,11.9 26.5,12.4 26.7,12.4 26.8,12.9 27.4,12.1 27.6,12.3 28.1,12 28.1,12.4 28.2,12.5 28.1,12.7 
	28.6,12.9 27.9,13.6 28.7,13.5 28.7,13.7 29.5,13.8 28.8,14.4 29,14.8 27.9,14.8 28.4,15.6 27,15.2 27,15.4 26.5,14.6 25.9,15.3 
	26.5,14.6 "/>
<polygon id="Leaf_50_" class="st1" points="31,35.6 30.3,35.6 30.5,35.4 30,35 30.1,35 29.7,34.3 30.3,34.5 30.5,34.4 30.1,33.6 
	30.4,33.7 30.9,32.9 31.1,33.5 31.3,33.4 31.4,34 32.1,33.2 32.2,33.4 32.8,33.1 32.7,33.4 32.8,33.6 32.7,33.8 33.2,34 32.5,34.7 
	33.3,34.6 33.3,34.8 34.1,34.9 33.4,35.5 33.5,36 32.5,35.9 32.9,36.7 31.6,36.2 31.6,36.5 31.1,35.7 30.5,36.4 31,35.6 "/>
<polygon id="Leaf_49_" class="st1" points="30.8,37.7 30.3,37.2 30.5,37.2 30.3,36.5 30.5,36.6 30.6,35.8 31,36.3 31.2,36.3 
	31.3,35.6 31.5,35.8 32.4,35.5 32.2,36.1 32.4,36.2 32.1,36.7 33.1,36.5 33.1,36.7 33.8,36.8 33.5,37.1 33.4,37.3 33.3,37.4 
	33.5,37.8 32.5,37.9 33.2,38.3 33.1,38.5 33.6,39.1 32.7,39 32.5,39.5 31.7,38.8 31.5,39.7 30.8,38.5 30.7,38.7 30.8,37.7 
	29.9,37.9 30.8,37.7 "/>
<polygon id="Leaf_48_" class="st1" points="29.7,37.9 29.2,38.4 29.2,38.2 28.5,38.3 28.5,38.2 27.8,38 28.4,37.6 28.3,37.5 
	27.6,37.3 27.9,37.1 27.5,36.2 28.1,36.4 28.2,36.2 28.7,36.5 28.5,35.5 28.8,35.5 28.9,34.9 29.1,35.2 29.4,35.2 29.4,35.4 
	29.9,35.1 29.9,36.2 30.4,35.5 30.5,35.6 31.2,35.1 31.1,36 31.6,36.2 30.9,37 31.7,37.2 30.5,37.8 30.7,38 29.7,37.9 29.8,38.8 
	29.7,37.9 "/>
<polygon id="Leaf_53_" class="st1" points="19.1,19.4 18.4,19.4 18.5,19.2 18,18.8 18.2,18.7 17.8,18.1 18.4,18.2 18.5,18.1 
	18.2,17.4 18.5,17.5 18.9,16.7 19.2,17.2 19.4,17.2 19.5,17.8 20.2,17 20.3,17.2 20.9,16.9 20.8,17.2 20.9,17.4 20.8,17.6 
	21.3,17.8 20.6,18.5 21.4,18.4 21.4,18.5 22.2,18.7 21.5,19.2 21.6,19.7 20.6,19.7 21,20.5 19.7,20 19.7,20.3 19.2,19.4 18.5,20.1 
	19.1,19.4 "/>
<polygon id="Leaf_52_" class="st1" points="18.9,21.4 18.3,21 18.6,20.9 18.4,20.3 18.6,20.3 18.7,19.6 19.1,20.1 19.2,20.1 
	19.4,19.3 19.6,19.6 20.5,19.3 20.3,19.8 20.5,19.9 20.2,20.4 21.2,20.2 21.2,20.5 21.8,20.6 21.6,20.8 21.5,21.1 21.4,21.1 
	21.6,21.6 20.6,21.7 21.3,22.1 21.2,22.2 21.7,22.9 20.8,22.8 20.6,23.3 19.8,22.6 19.6,23.5 18.9,22.3 18.7,22.5 18.9,21.5 
	18,21.6 18.9,21.4 "/>
<polygon id="Leaf_51_" class="st1" points="17.8,21.6 17.3,22.2 17.2,21.9 16.6,22.1 16.6,21.9 15.9,21.8 16.4,21.4 16.4,21.2 
	15.7,21 16,20.8 15.6,20 16.2,20.1 16.3,20 16.8,20.3 16.6,19.3 16.9,19.3 17,18.7 17.2,19 17.5,19 17.5,19.2 18,18.9 18,20 
	18.5,19.3 18.6,19.4 19.3,18.9 19.2,19.8 19.7,20 18.9,20.7 19.8,21 18.6,21.6 18.8,21.8 17.8,21.6 17.9,22.6 17.8,21.6 "/>
<polygon id="Leaf_2_" class="st1" points="11.6,15.2 11.7,15.9 11.6,15.8 11.3,16.3 11.2,16.2 10.7,16.7 10.7,16.1 10.6,16 10,16.5 
	10,16.1 9.2,15.9 9.6,15.6 9.6,15.4 10,15.2 9.2,14.8 9.3,14.6 8.9,14.1 9.3,14.1 9.4,14 9.6,14 9.6,13.5 10.5,14.1 10.2,13.3 
	10.3,13.3 10.3,12.6 11,13.1 11.4,12.9 11.6,13.8 12.2,13.3 12,14.5 12.3,14.5 11.6,15.1 12.4,15.6 11.6,15.2 "/>
<polygon id="Leaf_3_" class="st1" points="10,12.5 10.2,13.1 10,13 9.7,13.6 9.6,13.5 9.1,14 9.1,13.3 9,13.3 8.4,13.7 8.4,13.4 
	7.6,13.2 8,12.8 8,12.7 8.5,12.5 7.6,12 7.8,11.9 7.4,11.4 7.7,11.4 7.8,11.2 8,11.3 8.1,10.8 8.9,11.4 8.6,10.6 8.8,10.6 8.8,9.8 
	9.4,10.4 9.8,10.1 10,11.1 10.6,10.5 10.5,11.8 10.7,11.8 10.1,12.4 10.8,12.8 10,12.5 "/>
</svg>
