<?xml version="1.0" encoding="UTF-8"?>
<svg width="22px" height="21px" viewBox="0 0 22 21" version="1.1" xmlns="http://www.w3.org/2000/svg" xmlns:xlink="http://www.w3.org/1999/xlink">
    <!-- Generator: Sketch 42 (36781) - http://www.bohemiancoding.com/sketch -->
    <title>Group 2</title>
    <desc>Created with Sketch.</desc>
    <defs></defs>
    <g id="Symbols" stroke="none" stroke-width="1" fill="none" fill-rule="evenodd" stroke-linejoin="round">
        <g id="Group-7" transform="translate(-66.000000, -15.000000)" stroke="#003c76" stroke-width="2">
            <g id="Group-2" transform="translate(67.000000, 16.000000)">
                <g id="Group" transform="translate(0.000000, 2.192308)">
                    <path d="M4.28849903,9.543036 C4.28849903,9.543036 5.06899813,8.79560838 6.20163858,8.79560838 C7.33427903,8.79560838 8.10105429,9.53462194 8.10105429,9.53462194 L8.10105429,5.32907052e-14" id="Path-2-Copy-2" transform="translate(6.194777, 4.771518) rotate(180.000000) translate(-6.194777, -4.771518) "></path>
                    <ellipse id="Oval-2" cx="2.14424951" cy="9.52706553" rx="2.14424951" ry="2.16524217"></ellipse>
                </g>
                <g id="Group-Copy" transform="translate(8.148148, 0.000000)">
                    <path d="M4.28849903,9.543036 C4.28849903,9.543036 5.06899813,8.79560838 6.20163858,8.79560838 C7.33427903,8.79560838 8.10105429,9.53462194 8.10105429,9.53462194 L8.10105429,5.68434189e-14" id="Path-2-Copy-2" transform="translate(6.194777, 4.771518) rotate(180.000000) translate(-6.194777, -4.771518) "></path>
                    <ellipse id="Oval-2" cx="2.14424951" cy="9.52706553" rx="2.14424951" ry="2.16524217"></ellipse>
                </g>
                <g id="Group-Copy-2" transform="translate(11.851852, 7.307692)">
                    <path d="M4.28849903,9.543036 C4.28849903,9.543036 5.06899813,8.79560838 6.20163858,8.79560838 C7.33427903,8.79560838 8.10105429,9.53462194 8.10105429,9.53462194 L8.10105429,7.81597009e-14" id="Path-2-Copy-2" transform="translate(6.194777, 4.771518) rotate(180.000000) translate(-6.194777, -4.771518) "></path>
                    <ellipse id="Oval-2" cx="2.14424951" cy="9.52706553" rx="2.14424951" ry="2.16524217"></ellipse>
                </g>
            </g>
        </g>
    </g>
</svg>