<svg xmlns="http://www.w3.org/2000/svg" viewBox="0 0 44.85 82.05"><defs><style>.cls-1{fill:#665e53;}.cls-2{fill:#81c341;}</style></defs><title>maple</title><g id="Trunk"><polygon class="cls-1" points="14.09 78.31 12.78 53.42 21.15 20.43 21.15 8.67 22.28 9.3 24.04 22.76 19.42 54.84 22.82 78.31 18.41 80.27 14.09 78.31"/></g><g id="Branch-P1"><polygon class="cls-1" points="19.17 43.28 19.91 46.8 39.65 34.77 39.34 34.13 19.17 43.28"/><polygon class="cls-1" points="18.41 32.63 19.91 29.93 6.2 12.56 5.65 12.99 18.41 32.63"/><polygon class="cls-1" points="22.41 17.07 23.04 18.86 30.2 8.08 29.9 7.86 22.41 17.07"/></g><g id="Leaves"><polygon id="Leaf" class="cls-2" points="30.08 6.48 29.33 7.07 29.35 6.78 28.5 6.81 28.56 6.64 27.58 6.29 28.41 5.92 28.43 5.7 27.46 5.27 27.87 5.09 27.62 3.92 28.32 4.22 28.51 4.03 29.09 4.51 29.08 3.14 29.35 3.24 29.71 2.43 29.91 2.87 30.22 2.94 30.27 3.2 30.91 2.94 30.76 4.33 31.54 3.5 31.66 3.68 32.59 3.2 32.31 4.33 32.9 4.7 31.81 5.54 32.93 6.01 31.2 6.62 31.39 6.91 30.18 6.48 30.14 7.72 30.08 6.48 30.08 6.48"/><polygon id="Leaf-2" data-name="Leaf" class="cls-2" points="6.21 11.9 5.46 12.49 5.48 12.2 4.63 12.24 4.69 12.06 3.71 11.71 4.54 11.35 4.56 11.12 3.59 10.69 4 10.51 3.75 9.34 4.45 9.65 4.64 9.45 5.22 9.93 5.21 8.56 5.47 8.67 5.84 7.86 6.04 8.29 6.35 8.36 6.4 8.62 7.03 8.37 6.88 9.75 7.67 8.92 7.79 9.11 8.72 8.63 8.44 9.76 9.03 10.12 7.94 10.97 9.06 11.43 7.33 12.04 7.51 12.33 6.3 11.9 6.27 13.14 6.21 11.9 6.21 11.9"/><polygon id="Leaf-3" data-name="Leaf" class="cls-2" points="8.34 14.47 7.4 14.65 7.55 14.4 6.78 14.05 6.91 13.92 6.19 13.16 7.1 13.21 7.22 13.02 6.55 12.2 7 12.23 7.3 11.07 7.79 11.66 8.04 11.57 8.35 12.26 8.96 11.03 9.14 11.25 9.83 10.69 9.82 11.17 10.06 11.37 9.99 11.62 10.67 11.69 9.91 12.85 10.99 12.46 11.01 12.69 12.05 12.67 11.3 13.56 11.66 14.15 10.3 14.41 11.09 15.33 9.28 15.09 9.31 15.43 8.42 14.51 7.84 15.6 8.34 14.47 8.34 14.47"/><polygon id="Leaf-4" data-name="Leaf" class="cls-2" points="6.03 14.53 6.59 15.31 6.3 15.28 6.31 16.12 6.14 16.06 5.76 17.03 5.42 16.19 5.2 16.16 4.74 17.12 4.57 16.7 3.39 16.92 3.72 16.23 3.53 16.04 4.02 15.47 2.65 15.44 2.77 15.18 1.97 14.79 2.41 14.6 2.49 14.29 2.75 14.25 2.52 13.61 3.9 13.8 3.08 12.99 3.28 12.87 2.82 11.94 3.94 12.24 4.32 11.66 5.14 12.78 5.64 11.67 6.19 13.42 6.49 13.24 6.03 14.44 7.26 14.51 6.03 14.53 6.03 14.53"/><polygon id="Leaf-5" data-name="Leaf" class="cls-2" points="27.99 9.51 27.08 9.78 27.2 9.53 26.4 9.25 26.51 9.11 25.72 8.43 26.63 8.39 26.73 8.19 25.97 7.44 26.42 7.42 26.61 6.23 27.16 6.77 27.4 6.66 27.77 7.31 28.25 6.03 28.46 6.22 29.09 5.59 29.13 6.08 29.39 6.25 29.34 6.51 30.02 6.5 29.39 7.74 30.42 7.24 30.47 7.46 31.5 7.34 30.84 8.3 31.26 8.85 29.94 9.25 30.82 10.09 28.98 10.03 29.05 10.37 28.08 9.54 27.61 10.69 27.99 9.51 27.99 9.51"/><polygon id="Leaf-6" data-name="Leaf" class="cls-2" points="29.06 10.1 28.27 9.56 28.55 9.49 28.25 8.7 28.43 8.7 28.46 7.66 29.07 8.33 29.29 8.28 29.39 7.23 29.69 7.56 30.73 6.95 30.66 7.72 30.9 7.83 30.63 8.54 31.93 8.1 31.91 8.38 32.79 8.47 32.44 8.81 32.47 9.12 32.24 9.25 32.68 9.77 31.32 10.06 32.35 10.55 32.21 10.72 32.96 11.45 31.8 11.54 31.64 12.21 30.49 11.44 30.4 12.65 29.28 11.2 29.07 11.47 29.09 10.18 27.91 10.54 29.06 10.1 29.06 10.1"/><polygon id="Leaf-7" data-name="Leaf" class="cls-2" points="19.96 5.89 19.93 6.84 19.73 6.65 19.21 7.32 19.12 7.17 18.22 7.7 18.47 6.83 18.31 6.67 17.36 7.14 17.48 6.71 16.42 6.16 17.1 5.81 17.07 5.54 17.81 5.4 16.75 4.54 17 4.4 16.6 3.6 17.07 3.72 17.32 3.53 17.55 3.65 17.76 3.01 18.73 4 18.59 2.87 18.81 2.89 19.03 1.87 19.72 2.81 20.38 2.58 20.34 3.96 21.41 3.39 20.78 5.12 21.12 5.16 20.02 5.82 20.96 6.63 19.96 5.89 19.96 5.89"/><polygon id="Leaf-8" data-name="Leaf" class="cls-2" points="20.97 9.43 20.6 10.31 20.48 10.05 19.75 10.5 19.72 10.32 18.69 10.5 19.23 9.77 19.14 9.57 18.09 9.67 18.35 9.31 17.56 8.41 18.32 8.33 18.39 8.07 19.13 8.2 18.45 7.01 18.73 6.98 18.65 6.09 19.04 6.37 19.34 6.28 19.51 6.48 19.94 5.95 20.49 7.23 20.77 6.12 20.96 6.22 21.53 5.35 21.85 6.47 22.54 6.49 22 7.77 23.21 7.62 22 9 22.31 9.16 21.04 9.38 21.63 10.48 20.97 9.43 20.97 9.43"/><polygon id="Leaf-9" data-name="Leaf" class="cls-2" points="22.1 8.98 21.19 9.25 21.31 8.99 20.51 8.72 20.63 8.58 19.84 7.89 20.74 7.85 20.84 7.65 20.1 6.9 20.55 6.88 20.74 5.7 21.28 6.24 21.53 6.13 21.89 6.78 22.38 5.5 22.59 5.7 23.22 5.07 23.26 5.55 23.52 5.73 23.47 5.99 24.15 5.99 23.51 7.22 24.55 6.73 24.59 6.95 25.63 6.84 24.96 7.79 25.38 8.34 24.05 8.73 24.93 9.57 23.09 9.51 23.16 9.85 22.19 9.01 21.71 10.16 22.1 8.98 22.1 8.98"/><polygon id="Leaf-10" data-name="Leaf" class="cls-2" points="38.64 30.8 37.52 31.66 37.55 31.24 36.3 31.29 36.38 31.03 34.93 30.52 36.16 29.98 36.19 29.64 34.76 29.01 35.37 28.74 34.99 27.01 36.03 27.46 36.31 27.18 37.17 27.88 37.15 25.86 37.55 26.01 38.08 24.81 38.39 25.46 38.84 25.56 38.91 25.95 39.85 25.57 39.63 27.62 40.79 26.39 40.97 26.66 42.34 25.95 41.93 27.62 42.8 28.16 41.19 29.41 42.84 30.1 40.29 31 40.56 31.43 38.77 30.8 38.73 32.63 38.64 30.8 38.64 30.8"/><polygon id="Leaf-11" data-name="Leaf" class="cls-2" points="35.54 35.28 34.19 35.68 34.37 35.3 33.19 34.9 33.36 34.69 32.19 33.68 33.52 33.62 33.67 33.32 32.56 32.22 33.23 32.18 33.5 30.43 34.31 31.23 34.67 31.06 35.22 32.03 35.93 30.13 36.24 30.42 37.17 29.49 37.22 30.2 37.61 30.45 37.54 30.84 38.55 30.83 37.61 32.66 39.14 31.93 39.2 32.25 40.73 32.08 39.75 33.49 40.38 34.3 38.42 34.89 39.72 36.13 37.01 36.05 37.12 36.55 35.67 35.32 34.97 37.02 35.54 35.28 35.54 35.28"/><polygon id="Leaf-12" data-name="Leaf" class="cls-2" points="37.13 36.15 35.95 35.36 36.37 35.26 35.93 34.08 36.2 34.08 36.24 32.54 37.13 33.53 37.46 33.46 37.61 31.9 38.06 32.4 39.58 31.5 39.48 32.63 39.84 32.8 39.44 33.84 41.36 33.19 41.33 33.61 42.64 33.75 42.12 34.24 42.17 34.7 41.82 34.89 42.47 35.66 40.46 36.09 41.99 36.81 41.78 37.07 42.89 38.14 41.17 38.28 40.94 39.28 39.24 38.13 39.11 39.92 37.45 37.77 37.13 38.17 37.17 36.27 35.42 36.8 37.13 36.15 37.13 36.15"/></g></svg>